<svg width="139" height="44" viewBox="0 0 139 44" fill="none" xmlns="http://www.w3.org/2000/svg">
<path d="M52.5362 2.88477H37.1602V6.69377H52.5362V2.88477Z" fill="#21CC98"/>
<path d="M38.4196 26.8529H51.5116C50.7966 23.8639 48.0356 21.7679 45.1706 21.7679C42.0506 21.7679 39.2386 23.8119 38.4196 26.8529ZM38.0116 30.8419C38.2666 34.7809 41.5916 37.9199 45.7836 37.9199C49.3646 37.9199 51.3076 36.2259 52.6876 34.7309L55.8586 37.6719C54.0686 39.9159 50.6426 42.0589 45.7346 42.0589C38.7276 42.0589 33.3066 36.8739 33.3066 29.8439C33.3066 22.8169 38.2166 17.6309 45.0176 17.6309C51.7166 17.6309 56.5756 22.9159 56.5756 29.8439C56.5756 30.0449 56.5756 30.3939 56.5236 30.8419H38.0116Z" fill="white"/>
<path d="M136.764 18.6426H131.905V41.4106H136.764V18.6426Z" fill="white"/>
<path d="M111.922 21.5758C109.923 19.1298 106.799 17.6318 103.367 17.6318C99.0116 17.6318 96.3996 19.3778 94.1986 21.5278C92.1986 19.1808 89.5936 17.5858 85.0246 17.6318C85.2126 17.6318 84.9776 17.6318 85.0246 17.6318C81.5916 17.6318 78.4656 19.1298 76.4696 21.5758C74.9836 23.3748 74.2666 25.6708 74.2666 29.6158V41.6008H79.1306V28.8658C79.1306 26.4698 79.6456 25.1728 80.5146 24.1738C81.5916 22.9248 83.2316 22.1248 85.0246 22.1248C87.5016 22.0908 89.1286 22.9268 90.2006 24.1738C91.0716 25.1728 91.5856 26.4698 91.5856 28.8658V41.6008H96.4506V29.6158C96.4506 27.9688 96.2986 26.6198 96.0406 25.4698C97.6286 23.8708 99.8836 22.1228 103.367 22.1228C105.16 22.1228 106.799 22.9228 107.874 24.1718C108.744 25.1688 109.257 26.4678 109.257 28.8638V41.5978H114.123V29.6158C114.123 25.6708 113.406 23.3748 111.922 21.5758Z" fill="white"/>
<path d="M134.311 1.74805C136.1 1.74805 137.532 3.14405 137.532 4.88905C137.532 6.63105 136.1 7.97905 134.311 7.97905C132.522 7.97905 131.139 6.63105 131.139 4.88905C131.139 3.14505 132.522 1.74805 134.311 1.74805Z" fill="white"/>
<path d="M7.38827 27.5024V21.9644V21.2154H16.1993V17.2274H7.38827V10.6074H2.53027V17.2274V18.2194V21.2154V27.5024V30.1854C2.53027 34.1234 3.24727 36.4154 4.72827 38.2114C6.72327 40.6534 9.84327 42.1494 13.2683 42.1494C13.9043 42.1494 15.3213 42.1314 16.1993 41.8464V37.2834C15.3213 37.5684 13.9103 37.6644 13.2683 37.6644C11.4793 37.6644 9.84327 36.8654 8.76927 35.6184C7.89927 34.6234 7.38727 33.3254 7.38727 30.9334L7.38827 27.5024Z" fill="white"/>
</svg>
